<?xml version="1.0" encoding="UTF-8"?>
<svg xmlns="http://www.w3.org/2000/svg" xmlns:xlink="http://www.w3.org/1999/xlink" viewBox="0 0 144 144" width="144px" height="144px">
<g id="surface36389528">
<path style=" stroke:none;fill-rule:nonzero;fill:rgb(100%,100%,100%);fill-opacity:1;" d="M 123.75 68.25 C 120.75 68.25 118.5 68.25 115.875 68.25 C 115.125 68.25 114 70.875 115.125 70.875 C 116.503906 70.875 117.285156 70.859375 119.625 70.875 C 119.910156 70.878906 121.125 70.875 121.125 72.375 C 121.125 73.230469 120.75 74.25 118.875 74.25 C 117.75 74.25 117 74.25 113.625 74.25 C 112.5 74.25 111.75 77.25 111.75 78.375 C 111.75 79.125 112.125 79.125 112.5 79.125 C 113.273438 79.125 118.882812 77.128906 120 77.25 C 120.890625 77.347656 121.5 78.070312 121.5 79.125 C 121.5 81 115.210938 83.988281 111.375 83.988281 C 109.875 83.988281 107.25 82.929688 107.25 79.875 C 107.25 77.625 108.75 74.625 108.75 73.875 C 108.75 73.125 108.375 73.125 108.375 72.375 C 108.375 71.625 108.75 70.875 110.25 70.875 C 110.625 70.875 111 69.75 111.375 67.875 C 111.523438 67.132812 110.625 67.5 109.125 66.75 C 107.773438 66.074219 108.011719 64.777344 108.75 64.441406 C 109.554688 64.078125 117.382812 63.90625 121.683594 63.671875 C 122.746094 63.613281 123.9375 63.632812 124.875 66.75 C 125.113281 67.539062 124.5 68.25 123.75 68.25 Z M 123.75 68.25 "/>
<path style=" stroke:none;fill-rule:nonzero;fill:rgb(100%,100%,100%);fill-opacity:1;" d="M 100.875 83.625 C 98.445312 83.625 96.75 79.5 95.25 75.375 C 94.273438 72.691406 94.125 72 93.75 72 C 93.375 72 93 73.5 93 76.125 C 93 83.25 91.875 84 90.75 84 C 89.25 84 88.875 81.3125 88.875 79.5 C 88.875 69.75 91.875 65.25 93 65.25 C 93.550781 65.25 94.273438 65.503906 94.875 66.375 C 99 72.375 100.125 78 100.875 78 C 101.25 78 101.625 76.875 101.625 75.375 C 101.625 68.625 100.125 66 99.375 62.625 C 99.195312 61.8125 99.808594 61.398438 100.5 61.875 C 102.296875 63.109375 105.75 66.75 105.75 73.875 C 105.75 81 103.160156 83.625 100.875 83.625 Z M 100.875 83.625 "/>
<path style=" stroke:none;fill-rule:nonzero;fill:rgb(100%,100%,100%);fill-opacity:1;" d="M 87 66.75 C 87 67.875 86.25 68.625 84.75 68.625 C 82.5 68.625 80.625 67.875 77.25 67.875 C 71.25 67.875 71.25 68.625 71.25 69.375 C 71.25 70.503906 77.25 70.125 81 70.875 C 84.75 71.625 87.375 72.75 87.375 76.875 C 87.332031 79.570312 85.875 84 78 84 C 72.375 84 67.875 81.375 67.875 78 C 67.875 76.832031 68.25 74.25 72.75 74.25 C 76.125 74.25 81.75 75.75 81.75 76.875 C 81.75 78 80.332031 78.75 78 78.75 C 75 78.75 73.125 76.5 70.875 76.5 C 70.125 76.5 69.75 76.875 69.75 77.625 C 69.75 79.875 75.375 80.625 78 80.625 C 80.402344 80.625 84 79.875 84 77.25 C 84 75.75 82.875 74.25 76.5 73.5 C 74.949219 73.316406 67.875 73.5 67.875 69.375 C 67.875 66 70.933594 63.75 78 63.75 C 85.066406 63.75 87 65.25 87 66.75 Z M 87 66.75 "/>
<path style=" stroke:none;fill-rule:nonzero;fill:rgb(100%,100%,100%);fill-opacity:1;" d="M 63.75 84 C 62.957031 84 62.179688 83.65625 61.851562 83.203125 C 61.285156 82.496094 61.066406 82.152344 61.125 76.125 C 61.265625 71.65625 61.5 64.5 63.375 64.5 C 64.875 64.5 66 66.375 66 77.25 C 66 84 65.625 84 63.75 84 Z M 63.75 84 "/>
<path style=" stroke:none;fill-rule:nonzero;fill:rgb(100%,100%,100%);fill-opacity:1;" d="M 72.375 47.625 C 72.375 47.625 72 45.011719 67.761719 45.011719 C 60 45.011719 57 51 57 52.875 C 57 55.875 58.125 56.625 58.5 57.375 C 58.875 58.125 58.5 58.875 58.5 59.625 C 58.5 60.375 58.875 60.75 59.625 60.75 C 60.375 60.75 60.46875 60.09375 60.75 59.625 C 61.03125 59.15625 61.5 58.875 61.5 58.875 C 61.5 58.875 62.25 60 66.75 60 C 72.15625 60 78 55.273438 78 51.75 C 78 46.875 72.398438 47.644531 72.375 47.625 Z M 60 55.125 C 59.625 54.375 60.375 49.125 66.375 48.75 C 64.5 49.875 62.25 51.375 60 55.125 Z M 62.851562 56.519531 C 64.875 52.125 69.367188 49.738281 71.402344 49.738281 C 73.121094 49.738281 73.871094 50.625 73.871094 51.75 C 73.875 54 68.625 58.125 62.851562 56.519531 Z M 62.851562 56.519531 "/>
<path style=" stroke:none;fill-rule:nonzero;fill:rgb(100%,100%,100%);fill-opacity:1;" d="M 140.25 65.25 C 136.125 65.25 130.875 72 128.625 77.625 C 127.125 75.375 128.25 72.375 129.375 70.5 C 130.261719 69.023438 132.75 66.375 132.75 64.5 C 132.75 64.125 132.75 63.375 132 63.375 C 131.25 63.375 130.578125 63.820312 129.570312 64.875 C 125.625 69 123.375 72.957031 123.375 76.125 C 123.375 80.625 125.25 81.75 126.75 82.5 C 125.25 86.25 123.75 93.375 123.75 98.25 C 123.75 99.75 125.25 102 127.875 102 C 129.109375 102 129.375 101.625 129.375 100.125 C 129.375 90.75 131.625 84 131.625 84 C 135 84 144 80.972656 144 70.5 C 144 66.464844 142.125 65.25 140.25 65.25 Z M 138.152344 77.042969 C 137.457031 77.683594 135.375 79.125 133.5 79.5 C 134.25 76.875 136.5 73.125 138.75 70.5 C 140.128906 68.890625 140.644531 69 141 69 C 141.613281 69 141.761719 69.75 141.761719 70.125 C 141.761719 73.5 139.242188 76.042969 138.152344 77.042969 Z M 138.152344 77.042969 "/>
<path style=" stroke:none;fill-rule:nonzero;fill:rgb(100%,100%,100%);fill-opacity:1;" d="M 12.75 42 C 4.125 42 0 43.8125 0 46.125 C 0 47.234375 0.75 49.125 3.75 49.125 C 3.75 49.125 5.25 49.125 5.25 48 C 5.25 47.25 4.417969 47.25 3.75 47.25 C 3 47.25 3 46.875 3 46.875 C 3 46.125 4.5 45.375 12.75 45.375 C 31.125 45.375 52.125 61.546875 52.125 72.375 C 52.125 82.125 40.804688 82.875 36.375 82.875 C 31.875 82.875 28.125 82.125 28.125 82.125 C 28.125 82.125 28.125 72.652344 28.125 69 C 37.125 69 41.523438 70.273438 41.523438 72.074219 C 41.523438 73.875 39 73.125 39 73.875 C 39 74.625 40.585938 75.085938 41.625 75 C 42.664062 74.914062 45 74.558594 45 71.625 C 45 68.625 42.75 64.125 28.125 64.125 C 28.125 64.125 28.125 59.625 28.125 58.875 C 28.125 58.125 27.75 54 25.5 54 C 23.25 54 22.875 57.859375 22.875 58.875 C 22.875 61.5 22.84375 64.125 22.84375 64.125 C 17.625 64.5 9 66.375 9 72 C 9 77.25 16.875 81.375 22.875 84.375 C 22.875 86.25 22.875 86.25 22.875 87.375 C 22.875 88.5 23.625 90 25.5 90 C 27.75 90 28.125 88.125 28.125 85.875 C 28.125 85.875 31.875 87 36.75 87 C 53.625 87 58.5 78.375 58.5 72 C 58.5 57.75 37.875 42 12.75 42 Z M 22.875 80.25 C 22.875 80.25 11.25 75.375 11.25 72 C 11.25 69 20.25 69 22.875 69 Z M 22.875 80.25 "/>
</g>
</svg>
