<?xml version="1.0" encoding="UTF-8"?>
<svg xmlns="http://www.w3.org/2000/svg" xmlns:xlink="http://www.w3.org/1999/xlink" viewBox="0 0 128 128" width="128px" height="128px">
<defs>
<linearGradient id="linear0" gradientUnits="userSpaceOnUse" x1="86" y1="81.025436" x2="86" y2="139.709686" gradientTransform="matrix(0.744186,0,0,0.744186,0,0)">
<stop offset="0" style="stop-color:rgb(0%,77.64706%,100%);stop-opacity:1;"/>
<stop offset="1" style="stop-color:rgb(0%,44.705883%,100%);stop-opacity:1;"/>
</linearGradient>
<linearGradient id="linear1" gradientUnits="userSpaceOnUse" x1="92.353249" y1="43.671879" x2="92.353249" y2="91.375" gradientTransform="matrix(0.744186,0,0,0.744186,0,0)">
<stop offset="0" style="stop-color:rgb(43.921569%,87.450981%,100%);stop-opacity:1;"/>
<stop offset="1" style="stop-color:rgb(43.921569%,68.627453%,100%);stop-opacity:1;"/>
</linearGradient>
</defs>
<g id="surface5382003">
<path style=" stroke:none;fill-rule:nonzero;fill:url(#linear0);" d="M 29.78125 65.734375 C 19.203125 60.578125 15.503906 59.917969 7.304688 60.449219 C -0.890625 60.976562 -0.890625 65.074219 1.09375 65.207031 C 3.074219 65.339844 3.605469 65.472656 3.605469 65.472656 L 4 64.550781 L 1.621094 63.492188 C 1.621094 63.492188 11.933594 60.847656 24.753906 67.058594 C 37.574219 73.273438 40.882812 81.339844 37.3125 85.304688 C 33.746094 89.269531 27.53125 91.253906 19.863281 89.535156 C 19.730469 84.113281 19.996094 80.144531 19.996094 80.144531 C 19.996094 80.144531 27.136719 79.882812 28.988281 81.203125 C 30.839844 82.523438 29.253906 83.316406 28.0625 83.714844 C 29.785156 84.769531 31.105469 85.167969 32.292969 83.714844 C 33.484375 82.261719 34.804688 76.046875 20.265625 76.441406 C 20 73.929688 20.792969 72.210938 18.679688 69.699219 C 16.5625 67.1875 16.5625 76.574219 16.5625 76.574219 C 16.5625 76.574219 11.144531 77.367188 6.648438 80.539062 C 2.152344 83.714844 15.902344 91.378906 15.902344 91.378906 C 15.902344 91.378906 16.164062 94.816406 18.148438 95.214844 C 20.128906 95.609375 20 92.703125 20 92.703125 C 20 92.703125 31.894531 96.140625 39.832031 89.136719 C 47.761719 82.128906 40.355469 70.890625 29.78125 65.734375 Z M 16.03125 88.605469 C 16.03125 88.605469 11.535156 86.753906 9.027344 84.507812 C 6.515625 82.261719 7.304688 81.863281 8.496094 81.601562 C 9.6875 81.335938 14.3125 80.144531 16.292969 80.144531 Z M 44.984375 77.238281 C 44.984375 77.238281 44.320312 84.902344 44.585938 89.664062 C 44.71875 91.648438 47.890625 92.042969 47.890625 90.0625 C 47.890625 88.078125 47.761719 80.144531 47.492188 78.558594 C 47.230469 76.972656 45.777344 75.652344 44.984375 77.238281 Z M 62.960938 76.3125 C 62.960938 76.3125 55.691406 74.726562 50.800781 77.898438 C 48.421875 79.484375 49.078125 82.394531 50.402344 82.527344 C 51.722656 82.65625 58.464844 82.925781 60.050781 83.980469 C 61.636719 85.035156 62.035156 85.832031 60.316406 86.886719 C 58.597656 87.945312 54.765625 88.472656 53.175781 87.945312 C 51.589844 87.414062 51.0625 84.636719 53.96875 86.09375 C 56.875 87.546875 62.164062 85.828125 58.597656 84.636719 C 55.027344 83.449219 52.121094 83.714844 50.269531 85.035156 C 48.414062 86.359375 50.929688 89.132812 53.042969 90.058594 C 55.15625 90.980469 59.125 91.246094 61.507812 89.792969 C 63.882812 88.339844 65.074219 82.789062 61.242188 81.863281 C 57.40625 80.9375 55.027344 81.070312 53.308594 80.804688 C 51.589844 80.542969 52.386719 79.882812 55.160156 79.617188 C 57.9375 79.351562 59.921875 79.21875 62.300781 78.824219 C 64.679688 78.429688 64.8125 76.707031 62.960938 76.3125 Z M 72.746094 78.296875 C 73.011719 79.484375 74.066406 83.980469 74.066406 85.832031 C 72.746094 83.847656 70.628906 79.882812 68.78125 78.035156 C 66.929688 76.183594 66.402344 77.769531 66.402344 77.769531 C 66.402344 77.769531 64.550781 84.511719 65.078125 88.875 C 65.609375 93.238281 67.855469 90.195312 67.988281 88.875 C 68.121094 87.550781 68.386719 83.191406 68.386719 82 C 69.574219 84.644531 71.429688 87.683594 72.882812 89.140625 C 74.335938 90.59375 75.789062 89.671875 76.320312 88.347656 C 76.851562 87.027344 78.566406 79.886719 74.46875 75.128906 C 70.371094 70.371094 72.480469 77.105469 72.746094 78.296875 Z M 86.890625 86.359375 C 85.4375 86.492188 81.207031 87.152344 81.207031 87.152344 L 82.128906 84.375 C 82.128906 84.375 84.90625 84.507812 87.152344 84.242188 C 89.398438 83.980469 87.8125 81.46875 87.019531 81.46875 C 86.226562 81.46875 83.320312 81.46875 83.320312 81.46875 L 83.980469 79.617188 C 83.980469 79.617188 88.871094 79.484375 90.457031 79.21875 C 92.042969 78.953125 89.535156 76.308594 87.683594 76.175781 C 85.828125 76.042969 81.863281 76.574219 79.21875 77.101562 C 76.574219 77.628906 80.941406 79.613281 80.941406 79.613281 C 80.941406 79.613281 80.542969 80.933594 80.015625 81.859375 C 78.429688 82.121094 78.5625 83.046875 79.09375 84.234375 C 78.035156 87.011719 77.507812 90.449219 80.546875 91.507812 C 83.589844 92.5625 87.15625 89.789062 88.609375 88.601562 C 90.0625 87.410156 88.34375 86.226562 86.890625 86.359375 Z M 98.125 78.558594 C 96.140625 80.542969 92.707031 85.699219 92.707031 85.699219 C 93.105469 82.261719 94.027344 81.335938 96.144531 77.902344 C 97.953125 74.964844 95.089844 76.050781 95.089844 76.050781 C 95.089844 76.050781 88.347656 81.734375 91.253906 88.210938 C 89.269531 93.101562 86.097656 100.109375 90.722656 103.8125 C 91.914062 104.605469 91.515625 102.226562 91.914062 100.902344 C 92.3125 99.582031 93.632812 92.839844 94.957031 90.988281 C 98.128906 90.722656 103.8125 89.535156 104.738281 80.941406 C 105.132812 75.386719 100.109375 76.574219 98.125 78.558594 Z M 102.222656 82.925781 C 100.902344 86.492188 96.40625 87.023438 96.40625 87.023438 C 96.40625 87.023438 99.3125 82.261719 100.769531 80.941406 C 102.222656 79.617188 103.546875 79.351562 102.222656 82.925781 Z M 53.046875 70.890625 C 55.691406 68.246094 56.882812 63.355469 52.257812 63.621094 C 52.257812 63.621094 50.535156 61.375 46.835938 62.429688 C 43.136719 63.484375 38.507812 68.378906 41.8125 71.550781 C 41.8125 73.003906 42.210938 75.78125 44.191406 73.269531 C 46.304688 74.199219 50.402344 73.535156 53.046875 70.890625 Z M 43 69.4375 C 42.601562 67.453125 43.660156 65.601562 47.097656 64.941406 C 47.097656 64.945312 43.53125 67.851562 43 69.4375 Z M 50.929688 66.132812 C 54.628906 64.679688 53.441406 68.246094 51.460938 69.703125 C 49.476562 71.15625 47.492188 71.554688 45.117188 70.890625 C 45.117188 70.890625 47.230469 67.589844 50.929688 66.132812 Z M 127.5625 80.148438 L 119.605469 80.148438 C 119.441406 77.515625 119.125 74.710938 118.542969 72.070312 C 118.511719 71.921875 118.386719 71.808594 118.238281 71.796875 C 117.367188 71.726562 117.210938 71.777344 116.144531 71.800781 C 115.851562 71.808594 115.648438 72.085938 115.726562 72.363281 C 116.054688 73.578125 116.375 76.683594 116.53125 80.144531 L 108.972656 80.144531 C 108.742188 80.144531 108.542969 80.339844 108.53125 80.566406 L 108.332031 82.570312 C 108.316406 82.890625 108.59375 83.152344 108.910156 83.121094 L 116.621094 83.144531 C 116.664062 85.984375 116.585938 88.78125 116.289062 90.761719 C 116.261719 90.960938 116.414062 91.128906 116.617188 91.140625 C 117.828125 91.214844 118.753906 91.238281 119.210938 91.246094 C 119.398438 91.246094 119.546875 91.109375 119.5625 90.925781 C 119.632812 89.964844 119.816406 86.9375 119.726562 83.15625 L 127.554688 83.183594 C 127.796875 83.183594 127.996094 82.984375 127.996094 82.738281 L 127.996094 80.578125 C 128.007812 80.34375 127.804688 80.148438 127.5625 80.148438 Z M 127.5625 80.148438 "/>
<path style=" stroke:none;fill-rule:nonzero;fill:url(#linear1);" d="M 66.511719 32.5 C 46.652344 32.5 29.328125 42.992188 20.101562 58.496094 L 23.039062 59.429688 C 31.828125 45.132812 48.003906 35.5 66.511719 35.5 C 88.519531 35.5 107.273438 49.097656 114.175781 68 L 117.355469 68 C 110.34375 47.414062 90.207031 32.5 66.511719 32.5 Z M 66.511719 32.5 "/>
</g>
</svg>
