<?xml version="1.0" encoding="utf-8"?>
<svg xmlns="http://www.w3.org/2000/svg" viewBox="0 0 24 24" width="18" height="18">
  <path d="M9 0C4.027344 0 0 4.027344 0 9C0 13.972656 4.027344 18 9 18C13.972656 18 18 13.972656 18 9C18 4.027344 13.972656 0 9 0 Z M 9 1.75C10.390625 1.75 11.03125 2.089844 11.03125 3.1875C11.03125 4.285156 9.425781 5.3125 9 5.3125C8.574219 5.3125 6.96875 4.285156 6.96875 3.1875C6.96875 2.089844 7.609375 1.75 9 1.75 Z M 17.28125 3.375C17.992188 4.417969 18.507813 5.601563 18.78125 6.875C20.589844 8.308594 22 9.945313 22 11.46875C22 14.820313 19 15.714844 19 19.5C19 22.703125 22.535156 23.886719 22.6875 23.9375L23.3125 22.0625C23.289063 22.054688 21 21.246094 21 19.5C21 18 21.625 17.0625 22.34375 16C23.125 14.84375 24 13.546875 24 11.46875C24 8.21875 20.402344 5.289063 17.28125 3.375 Z M 3.5625 5.3125C3.765625 5.292969 3.988281 5.320313 4.25 5.40625C5.289063 5.746094 5.789063 7.59375 5.65625 8C5.527344 8.40625 4.042969 9.648438 3 9.3125C1.957031 8.972656 1.820313 8.226563 2.25 6.90625C2.570313 5.914063 2.953125 5.375 3.5625 5.3125 Z M 14.4375 5.3125C15.046875 5.375 15.429688 5.914063 15.75 6.90625C16.179688 8.226563 16.042969 8.972656 15 9.3125C13.957031 9.648438 12.472656 8.40625 12.34375 8C12.210938 7.59375 12.710938 5.746094 13.75 5.40625C14.011719 5.320313 14.234375 5.292969 14.4375 5.3125 Z M 9 7.65625C9.746094 7.65625 10.34375 8.253906 10.34375 9C10.34375 9.746094 9.746094 10.34375 9 10.34375C8.253906 10.34375 7.65625 9.746094 7.65625 9C7.65625 8.253906 8.253906 7.65625 9 7.65625 Z M 11.6875 11.78125C12.402344 11.691406 13.589844 11.835938 14.0625 12.5C14.699219 13.394531 14.351563 14.039063 13.21875 14.84375C12.085938 15.648438 11.382813 15.738281 10.75 14.84375C10.113281 13.949219 10.8125 12.183594 11.15625 11.9375C11.242188 11.875 11.449219 11.8125 11.6875 11.78125 Z M 6.28125 11.84375C6.519531 11.863281 6.691406 11.910156 6.78125 11.96875C7.140625 12.199219 7.9375 13.964844 7.34375 14.875C6.742188 15.792969 6.007813 15.726563 4.84375 14.96875C3.683594 14.210938 3.339844 13.574219 3.9375 12.65625C4.386719 11.96875 5.566406 11.785156 6.28125 11.84375Z" fill="#FFFFFF" />
</svg>