<?xml version="1.0" encoding="UTF-8"?>
<svg xmlns="http://www.w3.org/2000/svg" xmlns:xlink="http://www.w3.org/1999/xlink" viewBox="0 0 18 18" width="18px" height="18px">
<g id="surface20247472">
<path style=" stroke:none;fill-rule:nonzero;fill:rgb(100%,100%,100%);fill-opacity:1;" d="M 9 1.5 C 8.800781 1.5 8.609375 1.582031 8.464844 1.722656 L 0.902344 8.324219 C 0.804688 8.394531 0.75 8.507812 0.75 8.625 C 0.75 8.832031 0.917969 9 1.125 9 L 3 9 L 3 15 C 3 15.414062 3.335938 15.75 3.75 15.75 L 6.75 15.75 C 7.164062 15.75 7.5 15.414062 7.5 15 L 7.5 10.5 L 10.5 10.5 L 10.5 15 C 10.5 15.414062 10.835938 15.75 11.25 15.75 L 14.25 15.75 C 14.664062 15.75 15 15.414062 15 15 L 15 9 L 16.875 9 C 17.082031 9 17.25 8.832031 17.25 8.625 C 17.25 8.507812 17.195312 8.394531 17.097656 8.324219 L 9.539062 1.726562 C 9.535156 1.726562 9.535156 1.722656 9.535156 1.722656 C 9.390625 1.582031 9.199219 1.5 9 1.5 Z M 9 1.5 "/>
</g>
</svg>
