<?xml version="1.0" encoding="UTF-8"?>
<svg xmlns="http://www.w3.org/2000/svg" xmlns:xlink="http://www.w3.org/1999/xlink" viewBox="0 0 150 150" width="150px" height="150px">
<g id="surface36439212">
<path style=" stroke:none;fill-rule:nonzero;fill:rgb(100%,100%,100%);fill-opacity:1;" d="M 0 57 L 0.796875 59.179688 L 6 60 L 6 84 C 4.5 84.304688 2.15625 84.726562 0.65625 85.03125 L 0 87 L 18 87 L 17.402344 84.902344 L 12 84 L 12 60 C 13.5 60 16.207031 60.445312 17.402344 61.042969 C 19.207031 61.945312 20.402344 63.75 20.402344 66.152344 C 20.402344 70.652344 16.875 72.421875 13.195312 72.949219 L 13.195312 75.046875 C 19.59375 75.046875 27 70.945312 27 63.75 C 27 62.554688 26.402344 59.847656 22.804688 58.347656 C 20.695312 57.445312 16.195312 57 12 57 Z M 30 57 L 30.65625 58.96875 C 32.15625 59.273438 34.5 59.695312 36 60 L 36 84 C 34.5 84.304688 32.15625 84.726562 30.65625 85.03125 L 30 87 L 48 87 L 47.402344 84.902344 L 42 84 L 42 60 L 47.402344 59.097656 L 48 57 Z M 51 57 L 51.65625 58.96875 C 52.652344 59.167969 54.011719 59.425781 55.265625 59.660156 L 55.207031 59.707031 C 55.207031 59.707031 57.902344 62.695312 59.707031 65.097656 C 61.5 67.5 63.292969 69.902344 64.792969 71.707031 C 63 74.097656 56.097656 83.097656 54.292969 84.292969 C 54.199219 84.398438 54.152344 84.480469 54.058594 84.5625 C 53.191406 84.738281 52.335938 84.890625 51.65625 85.03125 L 51 87 L 66 87 L 65.402344 84.902344 C 63.609375 84.597656 61.816406 84.304688 60.011719 84 C 61.652344 80.90625 64.886719 75.785156 66.292969 74.097656 C 67.5 75.292969 69.304688 77.695312 71.402344 80.097656 C 74.097656 83.097656 77.402344 87.597656 81 90 L 84 90 L 70.207031 69.597656 C 70.207031 69.597656 72.902344 66.304688 74.707031 64.207031 C 75.902344 62.707031 77.097656 61.195312 78.597656 60 L 78.691406 59.894531 C 80.261719 59.625 81.832031 59.367188 83.402344 59.097656 L 84 57 L 69 57 L 69.65625 58.96875 C 70.675781 59.167969 72.070312 59.4375 73.335938 59.671875 C 72.070312 61.828125 69.539062 65.472656 68.097656 67.207031 C 66.972656 65.519531 63.269531 60.222656 62.800781 59.53125 C 63.667969 59.390625 64.535156 59.238281 65.402344 59.097656 L 66 57 Z M 93 57 L 93.65625 58.96875 C 94.921875 59.226562 96.773438 59.566406 98.226562 59.847656 C 96.480469 64.417969 90.328125 80.894531 88.828125 84.234375 C 87.445312 84.492188 85.804688 84.796875 84.65625 85.03125 L 84 87 L 99 87 L 98.402344 84.902344 C 97.101562 84.691406 95.8125 84.46875 94.511719 84.246094 C 95.027344 81.679688 96.1875 77.179688 96.890625 75 L 106.171875 75 C 107.390625 78.082031 108.457031 81.164062 109.488281 84.246094 C 108.1875 84.46875 106.898438 84.691406 105.597656 84.902344 L 105 87 L 120 87 L 119.34375 85.03125 C 118.546875 84.867188 117.503906 84.679688 116.472656 84.480469 C 116.4375 84.421875 116.4375 84.363281 116.390625 84.304688 C 114.597656 80.707031 112.195312 74.109375 111 71.109375 C 109.511719 67.242188 107.742188 61.933594 106.828125 59.496094 C 108.257812 59.367188 109.617188 59.238281 110.390625 59.109375 L 111 57 Z M 120 57 L 120.796875 59.179688 L 126 60 L 126 84 L 123 85.03125 L 122.34375 87 L 138 87 L 137.402344 84.902344 L 132 84 L 132 75 L 133.921875 75 C 136.113281 78.082031 140.203125 83.050781 146.402344 87.597656 L 150 87 C 147.035156 83.789062 143.050781 78.339844 140.0625 73.828125 C 143.0625 73.125 147.09375 71.25 147 66 C 146.953125 63.1875 146.4375 57 132 57 Z M 132 60 C 133.5 60 136.207031 60.445312 137.402344 61.042969 C 139.207031 61.945312 140.402344 63.75 140.402344 66.152344 C 140.402344 68.636719 139.300781 70.265625 137.71875 71.34375 C 136.710938 71.742188 135.574219 71.929688 134.566406 72 L 132 72 Z M 101.402344 61.5 C 102.304688 64.195312 104.097656 69.597656 105 72 L 97.886719 72 C 98.871094 68.988281 100.488281 64.03125 101.402344 61.5 Z M 101.402344 61.5 "/>
</g>
</svg>
