<?xml version="1.0" encoding="UTF-8"?>
<svg xmlns="http://www.w3.org/2000/svg" xmlns:xlink="http://www.w3.org/1999/xlink" viewBox="0 0 18 18" width="18px" height="18px">
<g id="surface20238369">
<path style=" stroke:none;fill-rule:nonzero;fill:rgb(100%,100%,100%);fill-opacity:1;" d="M 7.800781 1.800781 C 4.492188 1.800781 1.800781 4.492188 1.800781 7.800781 C 1.800781 11.105469 4.492188 13.800781 7.800781 13.800781 C 9.238281 13.800781 10.558594 13.289062 11.59375 12.441406 L 15.175781 16.023438 C 15.328125 16.179688 15.550781 16.242188 15.761719 16.1875 C 15.96875 16.132812 16.132812 15.96875 16.1875 15.761719 C 16.242188 15.550781 16.179688 15.328125 16.023438 15.175781 L 12.441406 11.59375 C 13.289062 10.558594 13.800781 9.238281 13.800781 7.800781 C 13.800781 4.492188 11.105469 1.800781 7.800781 1.800781 Z M 7.800781 3 C 10.457031 3 12.601562 5.140625 12.601562 7.800781 C 12.601562 10.457031 10.457031 12.601562 7.800781 12.601562 C 5.140625 12.601562 3 10.457031 3 7.800781 C 3 5.140625 5.140625 3 7.800781 3 Z M 7.800781 3 "/>
</g>
</svg>
