<svg xmlns="http://www.w3.org/2000/svg" viewBox="0 0 48 48">
  <path d="M33.488281 1.9863281 A 1.50015 1.50015 0 0 0 32.5625 2.328125L23.533203 9.5527344L17.476562 4.3613281 A 1.50015 1.50015 0 1 0 15.523438 6.6386719L19.445312 10L11.5 10C7.916 10 5 12.916 5 16.5L5 34.5C5 38.084 7.916 41 11.5 41L36.5 41C40.084 41 43 38.084 43 34.5L43 16.5C43 12.916 40.084 10 36.5 10L27.777344 10L34.4375 4.671875 A 1.50015 1.50015 0 0 0 33.488281 1.9863281 z M 35.5 20C36.328 20 37 20.672 37 21.5C37 22.328 36.328 23 35.5 23C34.672 23 34 22.328 34 21.5C34 20.672 34.672 20 35.5 20 z M 35.5 27C36.328 27 37 27.672 37 28.5C37 29.328 36.328 30 35.5 30C34.672 30 34 29.328 34 28.5C34 27.672 34.672 27 35.5 27 z" fill="#FFFFFF" />
</svg>