<?xml version="1.0" encoding="UTF-8"?>
<svg xmlns="http://www.w3.org/2000/svg" xmlns:xlink="http://www.w3.org/1999/xlink" viewBox="0 0 144 144" width="144px" height="144px">
<g id="surface36450437">
<path style=" stroke:none;fill-rule:nonzero;fill:rgb(80.000001%,80.000001%,80.000001%);fill-opacity:1;" d="M 141 57 L 129.898438 57 C 129.601562 56.699219 129.601562 56.699219 129.300781 56.398438 C 132 54.300781 133.800781 51 133.800781 47.398438 C 133.800781 41.101562 128.699219 36 122.398438 36 L 101.398438 36 L 101.398438 67.800781 L 100.5 65.101562 L 91.5 38.101562 L 90.601562 36 L 73.800781 36 L 73.199219 38.101562 L 70.800781 45.601562 L 70.800781 36 L 27.300781 36 C 21.601562 36 17.398438 40.5 17.398438 46.199219 C 17.398438 48.898438 18.300781 50.101562 18.898438 51 C 19.5 51.601562 21.898438 54.601562 23.398438 56.699219 L 0 56.699219 L 0 68.699219 L 29.398438 68.699219 C 35.101562 68.699219 39.601562 64.199219 39.601562 58.5 C 39.601562 55.800781 38.699219 54.601562 38.101562 53.699219 L 33.601562 47.699219 L 44.101562 47.699219 L 44.101562 68.699219 L 57.898438 68.699219 L 57.898438 47.699219 L 69.898438 47.699219 L 64.5 64.800781 L 63 69 L 76.800781 69 L 77.398438 66.898438 L 78.898438 63 L 86.101562 63 L 87.601562 66.898438 L 88.199219 69 L 115.199219 69 L 115.199219 62.699219 C 117 64.5 118.800781 66 120 67.199219 C 120.601562 67.5 121.800781 69 124.199219 69 L 144 69 L 144 57 Z M 46.5 78.898438 L 37.5 105.898438 L 36.898438 108 L 27.601562 108 L 27 105.898438 L 24 97.800781 L 21.300781 105.898438 L 20.398438 108 L 10.800781 108 L 10.199219 105.898438 L 1.199219 78.898438 L 0 75 L 14.101562 75 L 14.699219 77.101562 L 15.601562 80.398438 L 16.800781 77.101562 L 17.699219 75 L 30.300781 75 L 30.898438 77.101562 L 32.101562 80.398438 L 33 77.101562 L 33.601562 75 L 48 75 Z M 123.898438 75 C 118.199219 75 113.699219 79.5 113.699219 85.199219 C 113.699219 87.898438 114.601562 89.101562 115.199219 90 C 115.800781 90.601562 118.199219 93.601562 120 95.699219 L 106.5 95.699219 C 106.5 95.699219 106.5 95.699219 106.199219 95.699219 L 105.898438 95.398438 C 108.601562 93.300781 110.398438 90 110.398438 86.398438 C 110.398438 80.101562 105.300781 75 99 75 L 78 75 L 78 108 L 76.800781 104.101562 L 67.800781 77.101562 L 67.199219 75 L 50.398438 75 L 49.800781 77.101562 L 41.101562 104.101562 L 39.601562 108 L 53.101562 108 L 53.699219 105.898438 L 55.199219 102 L 62.398438 102 L 63.898438 105.898438 L 64.5 108 L 92.101562 108 L 92.101562 101.699219 C 93.898438 103.5 95.699219 105 97.199219 106.199219 C 98.398438 107.398438 99.898438 108 101.699219 108 L 126.601562 108 C 132.300781 108 136.800781 103.5 136.800781 97.800781 C 136.800781 95.101562 135.898438 93.898438 135.300781 93 L 130.800781 87 L 144 87 L 144 75 Z M 123.898438 75 "/>
<path style=" stroke:none;fill-rule:nonzero;fill:rgb(92.54902%,94.117647%,94.509804%);fill-opacity:1;" d="M 67.5 39 C 67.5 39 29.699219 39 27 39 C 23.101562 39 20.101562 42 20.101562 46.199219 C 20.101562 48 20.699219 48.601562 21 49.199219 C 21.898438 50.398438 27.300781 57 27.300781 57 C 27.300781 57.300781 27.601562 57.601562 27.601562 57.898438 C 27.898438 59.101562 27 60 25.800781 60 L 3 60 L 3 66 C 3 66 27.300781 66 29.398438 66 C 33.300781 66 36.601562 63 36.601562 58.800781 C 36.601562 57 36 56.398438 35.699219 55.800781 L 30 48 C 30 47.699219 29.699219 47.398438 29.699219 47.101562 C 29.699219 45.898438 30.601562 45 31.800781 45 L 47.398438 45 L 47.398438 66 L 55.199219 66 L 55.199219 45 L 68.101562 45 L 68.101562 39 Z M 88.5 39 L 75.898438 39 L 67.199219 66 L 74.699219 66 L 76.800781 60 L 88.199219 60 L 90.300781 66 L 97.800781 66 Z M 78.601562 54 L 82.199219 43.199219 L 85.800781 54 Z M 129.898438 60 C 128.699219 60 128.101562 59.398438 127.5 58.800781 C 126 57 124.199219 55.5 124.199219 55.5 C 127.800781 54.601562 130.5 51.300781 130.5 47.398438 C 130.5 42.601562 126.601562 39 122.101562 39 L 104.101562 39 L 104.101562 66 L 112.199219 66 L 112.199219 55.800781 C 112.199219 55.800781 119.101562 62.398438 122.101562 65.101562 C 122.398438 65.398438 123.300781 66 124.5 66 C 125.398438 66 141 66 141 66 L 141 60 Z M 112.199219 45 L 120 45 C 121.800781 45 123.300781 46.199219 123.300781 48 C 123.300781 49.800781 121.800781 51 120 51 L 112.199219 51 Z M 36 78 L 32.101562 89.699219 L 28.199219 78 L 19.800781 78 L 15.601562 89.699219 L 11.699219 78 L 4.199219 78 L 13.199219 105 L 18.300781 105 L 24 88.5 L 29.699219 105 L 34.800781 105 L 43.800781 78 Z M 128.101562 84 L 141 84 L 141 78 C 141 78 126.601562 78 123.898438 78 C 120 78 116.699219 81 116.699219 85.199219 C 116.699219 87 117.300781 87.601562 117.601562 88.199219 C 118.5 89.101562 124.199219 95.699219 124.199219 95.699219 C 124.199219 96 124.5 96.300781 124.5 96.601562 C 124.5 97.800781 123.601562 98.699219 122.699219 98.699219 C 122.699219 98.699219 107.101562 98.699219 106.800781 98.699219 C 105.601562 98.699219 105 98.101562 104.398438 97.5 C 102.898438 95.699219 101.398438 94.199219 101.398438 94.199219 C 105 93.300781 107.699219 90 107.699219 86.101562 C 107.699219 81.300781 103.800781 77.699219 99.300781 77.699219 L 81 77.699219 L 81 104.699219 L 89.101562 104.699219 L 89.101562 94.5 C 89.101562 94.5 96 101.101562 99 103.800781 C 99.300781 104.101562 100.199219 104.699219 101.398438 104.699219 C 102.300781 104.699219 124.800781 104.699219 126.300781 104.699219 C 130.199219 104.699219 133.5 102 133.5 97.5 C 133.5 95.699219 132.898438 95.101562 132.601562 94.5 L 126.601562 87 C 126.601562 86.699219 126.300781 86.398438 126.300781 86.101562 C 126.300781 84.898438 127.199219 84 128.101562 84 Z M 96.898438 90 L 89.101562 90 L 89.101562 84 L 96.898438 84 C 98.699219 84 100.199219 85.199219 100.199219 87 C 100.199219 88.800781 98.699219 90 96.898438 90 Z M 65.101562 78 L 52.5 78 L 43.800781 105 L 51 105 L 53.101562 99 L 64.5 99 L 66.601562 105 L 74.101562 105 Z M 55.199219 93 L 58.800781 82.199219 L 62.398438 93 Z M 55.199219 93 "/>
</g>
</svg>
